<svg id="Layer_1" data-name="Layer 1" xmlns="http://www.w3.org/2000/svg" viewBox="0 0 94.03 93.87"><defs><style>.cls-1{fill:none;}.cls-1,.cls-2,.cls-3{fill-rule:evenodd;}.cls-2{fill:#0165a4;}.cls-3{fill:#fff;}</style></defs><title>okcash-logo</title><path class="cls-1" d="M101,7.07v93.87H7.15V19.08c0-3.9-.37-7.92,0-11.64,0-.11-.14-.4.18-.37ZM42.26,10.83a46.8,46.8,0,0,0-8.16,3A43.51,43.51,0,0,0,12.56,37.13,43.43,43.43,0,0,0,9.35,56.2c.88,13.78,6.4,23.3,14.21,30.62A43.65,43.65,0,0,0,56.28,98.73c13.63-.86,23.42-6.37,30.62-14.21A43.69,43.69,0,0,0,98.82,51.8,44.71,44.71,0,0,0,52.07,9.27,46.34,46.34,0,0,0,42.26,10.83Z" transform="translate(-6.99 -7.07)"/><path class="cls-2" d="M52.07,9.27A44.71,44.71,0,0,1,98.82,51.8,43.69,43.69,0,0,1,86.9,84.53c-7.2,7.84-17,13.35-30.62,14.21A43.65,43.65,0,0,1,23.56,86.82C15.75,79.5,10.23,70,9.35,56.2a43.43,43.43,0,0,1,3.21-19.07A43.51,43.51,0,0,1,34.1,13.85a46.8,46.8,0,0,1,8.16-3A46.34,46.34,0,0,1,52.07,9.27ZM44.64,19.9A35.17,35.17,0,0,0,18.79,55.74,34.18,34.18,0,0,0,30,79.85a34.81,34.81,0,0,0,25.76,9.44A34.23,34.23,0,0,0,79.93,78.2a35.27,35.27,0,0,0-1.65-50,34.83,34.83,0,0,0-25.85-9.53A36.91,36.91,0,0,0,44.64,19.9Z" transform="translate(-6.99 -7.07)"/><path class="cls-3" d="M52.43,18.71a35.46,35.46,0,0,1,37,33.64A35,35,0,0,1,79.93,78.2a34.23,34.23,0,0,1-24.2,11.09A34.81,34.81,0,0,1,30,79.85,34.18,34.18,0,0,1,18.79,55.74,35.17,35.17,0,0,1,44.64,19.9,36.91,36.91,0,0,1,52.43,18.71ZM26.77,40.62c-1.52,3.65-2.84,6.71-4.4,10.45-.53,1.27-1.86,4.08-1.37,5.86.86,3.16,6.89,3.88,10.17,4.68,2.12.51,4.08,1,6,1.47,2.76.66,6.86,2.1,9.63.73s4.09-6.19,5.5-9.53c.8-1.9,1.41-3.41,2.2-5.32.53-1.28,2-3.84,1.47-6-.43-1.67-2.4-2.68-4.12-3.21-3.81-1.17-8-2-11.73-2.93-2.63-.66-5.24-1.6-8.25-1.19S27.82,38.09,26.77,40.62Zm33.37,1.19c-3.56,8-6.89,16.27-10.27,24.47,2.87.61,5.57,1.39,8.43,2,1.27-3,2.45-6.17,3.85-9.07,1.61.44,3.21.81,5,1.28,1.38.36,4.19.53,4.4,2,.18,1.28-1.05,3-1.56,4.22-.63,1.5-1.07,2.79-1.65,4.13,2.88.6,5.56,1.4,8.43,2,.62-1.62,1.47-3.57,2.29-5.59s2-3.88,2.2-5.78c.46-3.65-2.3-4.43-4.67-5.59,3.85-2.41,7.79-4.74,11.64-7.15-2.46-.51-4.94-1.27-7.33-1.83a10.28,10.28,0,0,0-2.57-.55c-.45.06-1.23.81-1.83,1.19s-1.45.8-1.92,1.1c-3.79,2.38-7.54,5.09-11.09,7,1.62-3.88,3.49-8,4.86-11.83C65.55,43.24,62.87,42.49,60.13,41.81Z" transform="translate(-6.99 -7.07)"/><path class="cls-2" d="M31.81,35.67c3-.4,5.62.54,8.25,1.19,3.71.93,7.92,1.76,11.73,2.93,1.72.53,3.7,1.54,4.12,3.21.54,2.12-.93,4.68-1.47,6-.79,1.9-1.4,3.42-2.2,5.32-1.41,3.35-2.69,8.15-5.5,9.53s-6.86-.08-9.62-.73c-1.88-.45-3.84-1-6-1.47-3.29-.79-9.32-1.52-10.17-4.68-.49-1.79.85-4.6,1.37-5.86,1.56-3.74,2.88-6.8,4.4-10.45C27.82,38.09,28.77,36.08,31.81,35.67Zm9.81,8.52a32.21,32.21,0,0,0-5-1.19c-1.79-.11-2.05,1.27-2.57,2.47l-2.29,5.41c-.31.74-1.08,2.34-.92,3,.28,1.22,3.64,1.62,4.86,1.92s4.38,1.46,5.68,1,2.16-4,2.66-5.22c.84-2,1.83-3.44,2.11-5.77C45.06,44.75,43.27,44.59,41.62,44.19Z" transform="translate(-6.99 -7.07)"/><path class="cls-2" d="M68.38,43.83c-1.37,3.83-3.24,7.94-4.86,11.83,3.55-1.88,7.3-4.59,11.09-7,.48-.3,1.23-.65,1.92-1.1s1.39-1.13,1.83-1.19a10.28,10.28,0,0,1,2.57.55c2.39.56,4.87,1.32,7.33,1.83-3.85,2.41-7.79,4.74-11.64,7.15,2.38,1.17,5.14,1.95,4.67,5.59-.24,1.89-1.4,3.81-2.2,5.78s-1.67,4-2.29,5.59c-2.87-.61-5.55-1.41-8.43-2,.58-1.33,1-2.62,1.65-4.12.5-1.2,1.74-2.94,1.56-4.22-.21-1.48-3-1.66-4.4-2-1.83-.47-3.43-.84-5-1.28-1.4,2.91-2.58,6-3.85,9.07-2.86-.62-5.56-1.4-8.43-2,3.38-8.2,6.71-16.46,10.27-24.47C62.87,42.49,65.55,43.24,68.38,43.83Z" transform="translate(-6.99 -7.07)"/><path class="cls-3" d="M46.11,45.84c-.28,2.33-1.27,3.76-2.11,5.77-.5,1.19-1.44,4.81-2.66,5.22s-4.42-.69-5.68-1-4.58-.71-4.86-1.92c-.16-.68.61-2.29.92-3L34,45.48c.51-1.21.78-2.59,2.57-2.47a32.21,32.21,0,0,1,5,1.19C43.27,44.59,45.06,44.75,46.11,45.84Z" transform="translate(-6.99 -7.07)"/></svg>