<?xml version="1.0" encoding="utf-8"?>
<!-- Generator: Adobe Illustrator 16.0.0, SVG Export Plug-In . SVG Version: 6.00 Build 0)  -->
<!DOCTYPE svg PUBLIC "-//W3C//DTD SVG 1.1//EN" "http://www.w3.org/Graphics/SVG/1.1/DTD/svg11.dtd">
<svg version="1.1" id="Layer_1" xmlns="http://www.w3.org/2000/svg" xmlns:xlink="http://www.w3.org/1999/xlink" x="0px" y="0px"
	 width="640px" height="480px" viewBox="0 0 640 480" enable-background="new 0 0 640 480" xml:space="preserve">
<g>
	<defs>
		<rect id="SVGID_1_" width="640" height="480"/>
	</defs>
	<clipPath id="SVGID_2_">
		<use xlink:href="#SVGID_1_"  overflow="visible"/>
	</clipPath>
	<g clip-path="url(#SVGID_2_)" enable-background="new    ">
		<g>
			<defs>
				<rect id="SVGID_3_" x="134.694" y="141.711" width="262.621" height="77.694"/>
			</defs>
			<clipPath id="SVGID_4_">
				<use xlink:href="#SVGID_3_"  overflow="visible"/>
			</clipPath>
			<g clip-path="url(#SVGID_4_)" enable-background="new    ">
				<g>
					<defs>
						<rect id="SVGID_5_" x="135.728" y="142.709" width="24.257" height="24.231"/>
					</defs>
					<clipPath id="SVGID_6_">
						<use xlink:href="#SVGID_5_"  overflow="visible"/>
					</clipPath>
					<g clip-path="url(#SVGID_6_)">
						<defs>
							<path id="SVGID_7_" d="M158.241,142.709l1.744,1.745c-12.403,0-22.498,10.092-22.513,22.486l-1.744-1.745
								C135.743,152.801,145.838,142.709,158.241,142.709"/>
						</defs>
						<clipPath id="SVGID_8_">
							<use xlink:href="#SVGID_7_"  overflow="visible"/>
						</clipPath>
						<g clip-path="url(#SVGID_8_)" enable-background="new    ">
							<g>
								<defs>
									<rect id="SVGID_9_" x="135.728" y="142.709" width="24.257" height="24.231"/>
								</defs>
								<clipPath id="SVGID_10_">
									<use xlink:href="#SVGID_9_"  overflow="visible"/>
								</clipPath>
								<path clip-path="url(#SVGID_10_)" fill="#6A6A6A" d="M158.241,142.709l1.744,1.745c-8.074,0-15.17,4.276-19.144,10.68
									l-1.744-1.744C143.071,146.985,150.167,142.709,158.241,142.709"/>
								<path clip-path="url(#SVGID_10_)" fill="#6E6E6E" d="M139.097,153.39l1.744,1.745c-0.705,1.136-1.312,2.338-1.808,3.596
									l-1.744-1.745C137.785,155.728,138.392,154.525,139.097,153.39"/>
								<path clip-path="url(#SVGID_10_)" fill="#727272" d="M137.289,156.986l1.744,1.745c-0.418,1.059-0.758,2.156-1.013,3.285
									l-1.743-1.744C136.531,159.142,136.871,158.045,137.289,156.986"/>
								<path clip-path="url(#SVGID_10_)" fill="#767676" d="M136.277,160.271l1.744,1.745c-0.242,1.07-0.407,2.17-0.489,3.292
									l-1.744-1.745C135.871,162.441,136.035,161.343,136.277,160.271"/>
								<path clip-path="url(#SVGID_10_)" fill="#7A7A7A" d="M135.788,163.563l1.744,1.745c-0.039,0.539-0.06,1.083-0.06,1.632
									l-1.745-1.745C135.728,164.646,135.748,164.103,135.788,163.563"/>
							</g>
						</g>
					</g>
				</g>
			</g>
			<polygon clip-path="url(#SVGID_4_)" fill="#797979" points="135.728,165.195 137.472,166.94 137.436,195.92 135.692,194.175 			
				"/>
			<g clip-path="url(#SVGID_4_)" enable-background="new    ">
				<g>
					<defs>
						<rect id="SVGID_11_" x="135.692" y="194.176" width="8.322" height="17.644"/>
					</defs>
					<clipPath id="SVGID_12_">
						<use xlink:href="#SVGID_11_"  overflow="visible"/>
					</clipPath>
					<g clip-path="url(#SVGID_12_)">
						<defs>
							<path id="SVGID_13_" d="M144.014,211.82l-1.744-1.745c-4.069-4.072-6.585-9.695-6.578-15.899l1.744,1.744
								C137.429,202.125,139.944,207.749,144.014,211.82"/>
						</defs>
						<clipPath id="SVGID_14_">
							<use xlink:href="#SVGID_13_"  overflow="visible"/>
						</clipPath>
						<g clip-path="url(#SVGID_14_)" enable-background="new    ">
							<g>
								<defs>
									<rect id="SVGID_15_" x="135.692" y="194.176" width="8.322" height="17.644"/>
								</defs>
								<clipPath id="SVGID_16_">
									<use xlink:href="#SVGID_15_"  overflow="visible"/>
								</clipPath>
								<path clip-path="url(#SVGID_16_)" fill="#7A7A7A" d="M135.692,194.176l1.744,1.745c-0.001,0.653,0.026,1.299,0.08,1.938
									l-1.744-1.745C135.718,195.475,135.691,194.829,135.692,194.176"/>
								<path clip-path="url(#SVGID_16_)" fill="#7E7E7E" d="M135.772,196.114l1.744,1.745c0.124,1.469,0.39,2.899,0.784,4.275
									l-1.744-1.746C136.163,199.013,135.896,197.583,135.772,196.114"/>
								<path clip-path="url(#SVGID_16_)" fill="#838383" d="M136.557,200.389l1.744,1.745c1.063,3.71,3.057,7.028,5.713,9.686
									l-1.744-1.745C139.614,207.418,137.62,204.099,136.557,200.389"/>
							</g>
						</g>
					</g>
				</g>
			</g>
			<g clip-path="url(#SVGID_4_)" enable-background="new    ">
				<g>
					<defs>
						<rect id="SVGID_17_" x="142.27" y="210.075" width="17.625" height="8.332"/>
					</defs>
					<clipPath id="SVGID_18_">
						<use xlink:href="#SVGID_17_"  overflow="visible"/>
					</clipPath>
					<g clip-path="url(#SVGID_18_)">
						<defs>
							<path id="SVGID_19_" d="M159.895,218.407c-6.199,0-11.814-2.518-15.88-6.586l-1.744-1.745
								c4.065,4.068,9.682,6.586,15.88,6.586C158.674,217.186,159.372,217.883,159.895,218.407"/>
						</defs>
						<clipPath id="SVGID_20_">
							<use xlink:href="#SVGID_19_"  overflow="visible"/>
						</clipPath>
						<g clip-path="url(#SVGID_20_)" enable-background="new    ">
							<g>
								<defs>
									<rect id="SVGID_21_" x="142.27" y="210.075" width="17.625" height="8.332"/>
								</defs>
								<clipPath id="SVGID_22_">
									<use xlink:href="#SVGID_21_"  overflow="visible"/>
								</clipPath>
								<path clip-path="url(#SVGID_22_)" fill="#666666" d="M158.151,216.662l1.744,1.745c-6.2,0-11.816-2.519-15.882-6.587
									l-1.744-1.745C146.335,214.143,151.952,216.662,158.151,216.662"/>
							</g>
						</g>
					</g>
				</g>
			</g>
			<g clip-path="url(#SVGID_4_)" enable-background="new    ">
				<g>
					<defs>
						<rect id="SVGID_23_" x="141.564" y="210.78" width="18.33" height="8.625"/>
					</defs>
					<clipPath id="SVGID_24_">
						<use xlink:href="#SVGID_23_"  overflow="visible"/>
					</clipPath>
					<g clip-path="url(#SVGID_24_)">
						<defs>
							<path id="SVGID_25_" d="M143.308,212.525l-1.744-1.745c4.247,4.249,10.112,6.88,16.586,6.88l1.744,1.745
								C153.42,219.405,147.555,216.774,143.308,212.525"/>
						</defs>
						<clipPath id="SVGID_26_">
							<use xlink:href="#SVGID_25_"  overflow="visible"/>
						</clipPath>
						<g clip-path="url(#SVGID_26_)" enable-background="new    ">
							<g>
								<defs>
									<rect id="SVGID_27_" x="141.564" y="210.78" width="18.33" height="8.625"/>
								</defs>
								<clipPath id="SVGID_28_">
									<use xlink:href="#SVGID_27_"  overflow="visible"/>
								</clipPath>
								<path clip-path="url(#SVGID_28_)" fill="#6A6A6A" d="M158.15,217.66l1.744,1.745c-6.473,0-12.339-2.631-16.586-6.88
									l-1.744-1.745C145.811,215.029,151.676,217.66,158.15,217.66"/>
							</g>
						</g>
					</g>
				</g>
			</g>
			<polygon clip-path="url(#SVGID_4_)" fill="#666666" points="372.104,142.709 373.848,144.454 159.985,144.454 158.242,142.709 
							"/>
			<g clip-path="url(#SVGID_4_)" enable-background="new    ">
				<g>
					<defs>
						<rect id="SVGID_29_" x="372.104" y="142.709" width="17.623" height="8.333"/>
					</defs>
					<clipPath id="SVGID_30_">
						<use xlink:href="#SVGID_29_"  overflow="visible"/>
					</clipPath>
					<g clip-path="url(#SVGID_30_)">
						<defs>
							<path id="SVGID_31_" d="M387.983,149.297l1.743,1.745c-4.065-4.068-9.681-6.588-15.879-6.588l-1.744-1.745
								C378.302,142.709,383.918,145.229,387.983,149.297"/>
						</defs>
						<clipPath id="SVGID_32_">
							<use xlink:href="#SVGID_31_"  overflow="visible"/>
						</clipPath>
						<g clip-path="url(#SVGID_32_)" enable-background="new    ">
							<g>
								<defs>
									<rect id="SVGID_33_" x="372.104" y="142.709" width="17.623" height="8.333"/>
								</defs>
								<clipPath id="SVGID_34_">
									<use xlink:href="#SVGID_33_"  overflow="visible"/>
								</clipPath>
								<path clip-path="url(#SVGID_34_)" fill="#6A6A6A" d="M387.983,149.297l1.743,1.745c-4.065-4.068-9.68-6.588-15.879-6.588
									l-1.744-1.745C378.302,142.709,383.918,145.229,387.983,149.297"/>
							</g>
						</g>
					</g>
				</g>
			</g>
			<g clip-path="url(#SVGID_4_)" enable-background="new    ">
				<g>
					<defs>
						<rect id="SVGID_35_" x="387.981" y="149.295" width="7.462" height="11.437"/>
					</defs>
					<clipPath id="SVGID_36_">
						<use xlink:href="#SVGID_35_"  overflow="visible"/>
					</clipPath>
					<g clip-path="url(#SVGID_36_)">
						<defs>
							<path id="SVGID_37_" d="M389.725,151.04c0.003,0.002,0.004,0.004,0.007,0.006c-0.581-0.582-1.163-1.163-1.744-1.745
								c-0.002-0.002-0.004-0.004-0.006-0.006C388.504,149.818,389.202,150.517,389.725,151.04"/>
						</defs>
						<clipPath id="SVGID_38_">
							<use xlink:href="#SVGID_37_"  overflow="visible"/>
						</clipPath>
						<g clip-path="url(#SVGID_38_)" enable-background="new    ">
							<g>
								<defs>
									<rect id="SVGID_39_" x="387.983" y="149.297" width="7.46" height="11.435"/>
								</defs>
								<clipPath id="SVGID_40_">
									<use xlink:href="#SVGID_39_"  overflow="visible"/>
								</clipPath>
								<path clip-path="url(#SVGID_40_)" fill="#7D7D7D" d="M387.983,149.297l1.744,1.745c2.657,2.659,4.651,5.979,5.715,9.69
									l-1.743-1.745C392.636,155.276,390.641,151.957,387.983,149.297"/>
							</g>
						</g>
					</g>
				</g>
			</g>
			<g clip-path="url(#SVGID_4_)" enable-background="new    ">
				<g>
					<defs>
						<rect id="SVGID_41_" x="387.983" y="149.297" width="8.323" height="17.643"/>
					</defs>
					<clipPath id="SVGID_42_">
						<use xlink:href="#SVGID_41_"  overflow="visible"/>
					</clipPath>
					<g clip-path="url(#SVGID_42_)">
						<defs>
							<path id="SVGID_43_" d="M389.731,151.046c4.067,4.073,6.583,9.696,6.575,15.894l-1.744-1.745
								c0.008-6.198-2.507-11.821-6.575-15.894C388.568,149.883,389.15,150.464,389.731,151.046"/>
						</defs>
						<clipPath id="SVGID_44_">
							<use xlink:href="#SVGID_43_"  overflow="visible"/>
						</clipPath>
						<g clip-path="url(#SVGID_44_)" enable-background="new    ">
							<g>
								<defs>
									<rect id="SVGID_45_" x="387.983" y="149.297" width="8.323" height="17.643"/>
								</defs>
								<clipPath id="SVGID_46_">
									<use xlink:href="#SVGID_45_"  overflow="visible"/>
								</clipPath>
								<path clip-path="url(#SVGID_46_)" fill="#7D7D7D" d="M387.983,149.297l1.744,1.745c2.657,2.659,4.651,5.979,5.715,9.69
									l-1.743-1.745C392.636,155.276,390.641,151.957,387.983,149.297"/>
								<path clip-path="url(#SVGID_46_)" fill="#7A7A7A" d="M393.699,158.987l1.743,1.745c0.395,1.375,0.66,2.803,0.784,4.272
									l-1.744-1.745C394.358,161.792,394.093,160.362,393.699,158.987"/>
								<path clip-path="url(#SVGID_46_)" fill="#767676" d="M394.482,163.259l1.744,1.745c0.054,0.638,0.081,1.284,0.08,1.936
									l-1.744-1.745C394.563,164.543,394.536,163.897,394.482,163.259"/>
							</g>
						</g>
					</g>
				</g>
			</g>
			<g clip-path="url(#SVGID_4_)" enable-background="new    ">
				<g>
					<defs>
						<rect id="SVGID_47_" x="388.7" y="148.595" width="8.614" height="18.345"/>
					</defs>
					<clipPath id="SVGID_48_">
						<use xlink:href="#SVGID_47_"  overflow="visible"/>
					</clipPath>
					<g clip-path="url(#SVGID_48_)">
						<defs>
							<path id="SVGID_49_" d="M388.7,148.595l1.743,1.745c4.25,4.252,6.879,10.124,6.871,16.6l-1.744-1.745
								C395.578,158.719,392.949,152.847,388.7,148.595"/>
						</defs>
						<clipPath id="SVGID_50_">
							<use xlink:href="#SVGID_49_"  overflow="visible"/>
						</clipPath>
						<g clip-path="url(#SVGID_50_)" enable-background="new    ">
							<g>
								<defs>
									<rect id="SVGID_51_" x="388.7" y="148.595" width="8.614" height="18.345"/>
								</defs>
								<clipPath id="SVGID_52_">
									<use xlink:href="#SVGID_51_"  overflow="visible"/>
								</clipPath>
								<path clip-path="url(#SVGID_52_)" fill="#838383" d="M388.7,148.595l1.743,1.745c2.775,2.776,4.858,6.243,5.969,10.117
									l-1.744-1.744C393.559,154.838,391.475,151.371,388.7,148.595"/>
								<path clip-path="url(#SVGID_52_)" fill="#7E7E7E" d="M394.668,158.713l1.744,1.745c0.411,1.436,0.688,2.927,0.819,4.461
									l-1.745-1.746C395.356,161.64,395.079,160.149,394.668,158.713"/>
								<path clip-path="url(#SVGID_52_)" fill="#7A7A7A" d="M395.486,163.173l1.744,1.745c0.056,0.667,0.084,1.341,0.084,2.022
									l-1.744-1.745C395.571,164.514,395.543,163.84,395.486,163.173"/>
							</g>
						</g>
					</g>
				</g>
			</g>
			<polygon clip-path="url(#SVGID_4_)" fill="#626262" points="372.014,216.662 373.758,218.407 159.895,218.407 158.152,216.662 
							"/>
			<polygon clip-path="url(#SVGID_4_)" fill="#757575" points="394.563,165.195 396.307,166.94 396.271,195.92 394.527,194.175 			
				"/>
			<polygon clip-path="url(#SVGID_4_)" fill="#666666" points="372.013,217.66 373.757,219.405 159.894,219.405 158.15,217.66 			
				"/>
			<polygon clip-path="url(#SVGID_4_)" fill="#797979" points="395.57,165.195 397.314,166.94 397.278,195.92 395.535,194.175 			
				"/>
			<g clip-path="url(#SVGID_4_)" enable-background="new    ">
				<g>
					<defs>
						<rect id="SVGID_53_" x="372.014" y="194.176" width="24.258" height="24.231"/>
					</defs>
					<clipPath id="SVGID_54_">
						<use xlink:href="#SVGID_53_"  overflow="visible"/>
					</clipPath>
					<g clip-path="url(#SVGID_54_)">
						<defs>
							<path id="SVGID_55_" d="M394.527,194.176l1.744,1.744c-0.016,12.404-10.11,22.487-22.514,22.487l-1.744-1.745
								C384.417,216.662,394.513,206.579,394.527,194.176"/>
						</defs>
						<clipPath id="SVGID_56_">
							<use xlink:href="#SVGID_55_"  overflow="visible"/>
						</clipPath>
						<g clip-path="url(#SVGID_56_)" enable-background="new    ">
							<g>
								<defs>
									<rect id="SVGID_57_" x="372.014" y="194.176" width="24.258" height="24.231"/>
								</defs>
								<clipPath id="SVGID_58_">
									<use xlink:href="#SVGID_57_"  overflow="visible"/>
								</clipPath>
								<path clip-path="url(#SVGID_58_)" fill="#767676" d="M394.527,194.176l1.744,1.745c-0.001,0.549-0.021,1.094-0.061,1.634
									l-1.744-1.745C394.506,195.27,394.526,194.725,394.527,194.176"/>
								<path clip-path="url(#SVGID_58_)" fill="#727272" d="M394.467,195.81l1.744,1.745c-0.082,1.123-0.247,2.223-0.489,3.295
									l-1.744-1.746C394.22,198.033,394.385,196.933,394.467,195.81"/>
								<path clip-path="url(#SVGID_58_)" fill="#6E6E6E" d="M393.978,199.104l1.744,1.745c-0.255,1.13-0.595,2.227-1.013,3.286
									l-1.743-1.745C393.384,201.332,393.724,200.234,393.978,199.104"/>
								<path clip-path="url(#SVGID_58_)" fill="#6A6A6A" d="M392.966,202.39l1.743,1.745c-0.496,1.257-1.103,2.46-1.807,3.595
									l-1.744-1.745C391.861,204.849,392.469,203.647,392.966,202.39"/>
								<path clip-path="url(#SVGID_58_)" fill="#666666" d="M391.158,205.985l1.744,1.745c-3.975,6.404-11.07,10.676-19.145,10.676
									l-1.744-1.744C380.088,216.663,387.184,212.39,391.158,205.985"/>
							</g>
						</g>
					</g>
				</g>
			</g>
			<path clip-path="url(#SVGID_4_)" fill="#B1B1B1" d="M372.105,141.711c12.952,0,23.48,10.532,23.465,23.485l-0.035,28.98
				c-0.016,12.952-10.571,23.484-23.522,23.484H158.15c-12.953,0-23.472-10.532-23.456-23.484l0.035-28.98
				c0.016-12.953,10.561-23.485,23.513-23.485H372.105z M394.527,194.176l0.035-28.98c0.016-12.395-10.057-22.487-22.459-22.487
				H158.241c-12.403,0-22.499,10.092-22.514,22.487l-0.035,28.98c-0.015,12.403,10.055,22.486,22.459,22.486h213.862
				C384.417,216.662,394.513,206.579,394.527,194.176"/>
			<path clip-path="url(#SVGID_4_)" fill="#AAAAAA" d="M372.104,142.709c12.404,0,22.475,10.092,22.459,22.486l-0.035,28.981
				c-0.015,12.403-10.111,22.486-22.514,22.486H158.151c-12.404,0-22.474-10.083-22.459-22.486l0.035-28.981
				c0.015-12.394,10.11-22.486,22.514-22.486H372.104z"/>
			<g clip-path="url(#SVGID_4_)" enable-background="new    ">
				<g>
					<defs>
						<rect id="SVGID_59_" x="372.012" y="194.176" width="25.268" height="25.229"/>
					</defs>
					<clipPath id="SVGID_60_">
						<use xlink:href="#SVGID_59_"  overflow="visible"/>
					</clipPath>
					<g clip-path="url(#SVGID_60_)">
						<defs>
							<path id="SVGID_61_" d="M395.535,194.176l1.743,1.744c-0.016,12.953-10.569,23.485-23.521,23.485l-1.744-1.745
								C384.965,217.66,395.52,207.128,395.535,194.176"/>
						</defs>
						<clipPath id="SVGID_62_">
							<use xlink:href="#SVGID_61_"  overflow="visible"/>
						</clipPath>
						<g clip-path="url(#SVGID_62_)" enable-background="new    ">
							<g>
								<defs>
									<rect id="SVGID_63_" x="372.012" y="194.176" width="25.268" height="25.229"/>
								</defs>
								<clipPath id="SVGID_64_">
									<use xlink:href="#SVGID_63_"  overflow="visible"/>
								</clipPath>
								<path clip-path="url(#SVGID_64_)" fill="#7A7A7A" d="M395.535,194.176l1.743,1.745c0,0.573-0.021,1.141-0.063,1.704
									l-1.743-1.745C395.514,195.317,395.534,194.749,395.535,194.176"/>
								<path clip-path="url(#SVGID_64_)" fill="#767676" d="M395.472,195.88l1.744,1.745c-0.086,1.172-0.259,2.319-0.511,3.438
									l-1.744-1.745C395.214,198.199,395.386,197.051,395.472,195.88"/>
								<path clip-path="url(#SVGID_64_)" fill="#727272" d="M394.961,199.317l1.744,1.745c-0.266,1.179-0.62,2.325-1.058,3.43
									l-1.743-1.745C394.341,201.643,394.695,200.497,394.961,199.317"/>
								<path clip-path="url(#SVGID_64_)" fill="#6E6E6E" d="M393.904,202.748l1.744,1.745c-0.519,1.313-1.152,2.569-1.888,3.755
									l-1.744-1.745C392.753,205.316,393.386,204.061,393.904,202.748"/>
								<path clip-path="url(#SVGID_64_)" fill="#6A6A6A" d="M392.017,206.502l1.744,1.745c-4.153,6.692-11.57,11.158-20.004,11.158
									l-1.744-1.745C380.446,217.661,387.864,213.194,392.017,206.502"/>
							</g>
						</g>
					</g>
				</g>
			</g>
		</g>
	</g>
	<path clip-path="url(#SVGID_2_)" fill="#0165A4" d="M182.073,154.951c13.11-0.614,24.238,9.524,24.863,22.653
		c0.392,6.44-1.904,12.754-6.339,17.433c-3.829,4.177-9.041,7.111-16.285,7.569c-6.428,0.393-12.731-1.907-17.401-6.348
		c-4.154-3.899-7.089-8.96-7.558-16.31c-0.2-3.471,0.384-6.943,1.707-10.158c2.125-5.429,6.216-9.857,11.457-12.399
		c1.393-0.667,2.846-1.202,4.339-1.598C178.56,155.326,180.309,155.044,182.073,154.951 M178.122,160.613
		c-8.5,2.326-14.228,10.278-13.748,19.09c0.175,4.911,2.326,9.542,5.962,12.842c3.687,3.484,8.639,5.301,13.7,5.028
		c4.904-0.153,9.54-2.284,12.854-5.907c7.103-7.553,6.746-19.443-0.796-26.556c-0.027-0.025-0.054-0.051-0.081-0.076
		c-3.692-3.512-8.663-5.348-13.748-5.076C180.865,160.028,179.476,160.247,178.122,160.613"/>
	<path clip-path="url(#SVGID_2_)" fill="#FFFFFF" d="M182.265,159.979c10.363-0.465,19.156,7.541,19.678,17.918
		c0.265,5.088-1.561,10.063-5.053,13.768c-3.318,3.628-7.96,5.758-12.87,5.908c-5.056,0.268-10.001-1.549-13.684-5.029
		c-3.637-3.299-5.787-7.93-5.962-12.842c-0.48-8.812,5.247-16.764,13.748-19.089C179.476,160.254,180.865,160.041,182.265,159.979
		 M168.618,171.649c-0.809,1.944-1.51,3.574-2.34,5.566c-0.282,0.676-0.99,2.173-0.729,3.121c0.458,1.683,3.665,2.067,5.409,2.493
		c1.127,0.272,2.17,0.533,3.191,0.783c1.468,0.352,3.648,1.119,5.121,0.389c1.473-0.73,2.176-3.297,2.926-5.076
		c0.425-1.012,0.75-1.816,1.169-2.834c0.282-0.682,1.064-2.045,0.782-3.196c-0.228-0.889-1.276-1.427-2.191-1.71
		c-2.026-0.623-4.255-1.065-6.238-1.56c-1.399-0.352-2.787-0.852-4.388-0.634S169.176,170.302,168.618,171.649 M186.365,172.283
		c-1.893,4.261-3.664,8.666-5.462,13.034c1.526,0.324,2.962,0.74,4.483,1.065c0.676-1.598,1.304-3.286,2.048-4.831
		c0.856,0.234,1.707,0.431,2.659,0.682c0.734,0.191,2.229,0.282,2.34,1.065c0.096,0.682-0.558,1.598-0.829,2.248
		c-0.335,0.799-0.57,1.486-0.878,2.199c1.532,0.32,2.957,0.746,4.484,1.065c0.329-0.862,0.781-1.901,1.218-2.977
		c0.436-1.076,1.063-2.067,1.169-3.078c0.245-1.945-1.223-2.36-2.483-2.978c2.047-1.284,4.143-2.525,6.19-3.808
		c-1.308-0.272-2.627-0.677-3.898-0.975c-0.441-0.156-0.9-0.254-1.367-0.293c-0.239,0.032-0.654,0.432-0.973,0.634
		c-0.319,0.202-0.771,0.426-1.021,0.586c-2.016,1.267-4.01,2.711-5.898,3.728c0.862-2.067,1.856-4.261,2.585-6.301
		c-1.49-0.304-2.915-0.703-4.372-1.065H186.365z"/>
	<path clip-path="url(#SVGID_2_)" fill="#0165A4" d="M171.299,169.013c1.595-0.213,2.989,0.288,4.387,0.634
		c1.974,0.495,4.213,0.937,6.239,1.56c0.915,0.282,1.967,0.821,2.191,1.71c0.287,1.129-0.495,2.493-0.782,3.196
		c-0.42,1.012-0.744,1.821-1.17,2.834c-0.75,1.784-1.43,4.34-2.925,5.076c-1.494,0.735-3.648-0.043-5.116-0.389
		c-1-0.24-2.043-0.533-3.191-0.783c-1.75-0.421-4.957-0.81-5.409-2.493c-0.26-0.953,0.452-2.45,0.729-3.121
		c0.829-1.992,1.532-3.622,2.34-5.566C169.177,170.302,169.682,169.231,171.299,169.013 M176.516,173.551
		c-0.868-0.282-1.757-0.494-2.659-0.634c-0.952-0.058-1.09,0.676-1.367,1.316l-1.218,2.881c-0.165,0.395-0.574,1.247-0.489,1.598
		c0.149,0.65,1.936,0.863,2.585,1.023c0.648,0.16,2.329,0.777,3.021,0.532c0.691-0.244,1.148-2.13,1.414-2.78
		c0.447-1.065,0.973-1.832,1.122-3.073C178.346,173.849,177.394,173.764,176.516,173.551"/>
	<path clip-path="url(#SVGID_2_)" fill="#0165A4" d="M190.748,173.359c-0.729,2.04-1.723,4.229-2.584,6.301
		c1.887-1.001,3.882-2.445,5.897-3.728c0.256-0.16,0.655-0.346,1.021-0.586c0.368-0.24,0.74-0.602,0.974-0.634
		c0.466,0.039,0.925,0.137,1.367,0.293c1.271,0.298,2.59,0.703,3.898,0.975c-2.048,1.283-4.143,2.525-6.191,3.808
		c1.266,0.623,2.734,1.039,2.484,2.977c-0.128,1.007-0.744,2.03-1.17,3.079c-0.425,1.049-0.888,2.131-1.218,2.977
		c-1.526-0.324-2.952-0.751-4.483-1.065c0.308-0.708,0.532-1.395,0.877-2.194c0.266-0.64,0.926-1.566,0.83-2.248
		c-0.112-0.788-1.596-0.884-2.34-1.065c-0.973-0.25-1.824-0.448-2.659-0.682c-0.745,1.55-1.372,3.196-2.048,4.831
		c-1.521-0.33-2.957-0.746-4.483-1.065c1.797-4.368,3.568-8.767,5.462-13.034C187.817,172.645,189.243,173.045,190.748,173.359"/>
	<path clip-path="url(#SVGID_2_)" fill="#FFFFFF" d="M178.904,174.43c-0.149,1.241-0.675,2.002-1.122,3.073
		c-0.266,0.634-0.766,2.562-1.415,2.781c-0.649,0.218-2.351-0.368-3.021-0.533c-0.67-0.165-2.436-0.378-2.585-1.023
		c-0.085-0.362,0.325-1.219,0.49-1.598l1.213-2.892c0.271-0.644,0.414-1.379,1.366-1.315c0.902,0.139,1.791,0.351,2.659,0.633
		C177.394,173.764,178.345,173.849,178.904,174.43"/>
</g>
<text transform="matrix(1 0 0 1 213.8081 174.2764)" fill="#0165A4" font-family="'Vipnagorgialla'" font-size="24">OKCASH</text>
<text transform="matrix(1 0 0 1 213.8081 198.3584)" font-family="'Vipnagorgialla'" font-size="18">ACCEPTED HERE</text>
</svg>
